<svg xmlns="http://www.w3.org/2000/svg" width="141" height="141" fill="none"><g clip-path="url(#a)"><path fill="url(#b)" d="M91.505 15a38.621 38.621 0 0 0-4.81 2.589c-.752.447-1.455.91-2.142 1.374C83.482 16.869 78.847 8.846 71 8.846h-.048c-2.27.144-12.61 1.535-15.662 15.28l-.032.111c-.352 1.423-.623 2.94-.895 4.539-.751 4.395-1.598 9.381-4.907 14.112-4.41 6.393-11.235 9.222-15.55 10.42a108.484 108.484 0 0 0-1.854-2.669c-.895-1.262-1.758-2.477-2.477-3.675l-.064-.112c-.144-.224-.272-.448-.416-.672.56-.08 9.302-1.342 13.777-7.847 2.301-3.276 2.925-6.968 3.596-10.883.287-1.663.575-3.389 1.007-5.099C50.879 7.216 62.066 1.32 70.617.855H71C82.97.855 89.54 11.292 91.505 15ZM23.102 57c2.302 3.245 4.46 6.297 5.162 10.229 1.439 7.767-3.851 14.83-4.203 15.294.256.064.495.128.767.192l.112.032c1.374.352 2.813.591 4.331.847 1.055.176 2.126.368 3.228.576 2.206-3.884 5.035-10.708 3.628-18.348-.99-5.673-3.915-9.797-6.504-13.44-.943-1.327-1.822-2.574-2.59-3.836l-.063-.096c-7.56-11.875-1.23-20.17.271-21.88 5.546-5.577 14.528-3.18 16.766-2.46.16-.816.335-1.647.543-2.494a39.787 39.787 0 0 1 1.566-5.242c-4.027-1.247-16.19-4.011-24.66 4.65l-.112.129c-5.722 6.376-9.461 18.443-1.167 31.532.911 1.518 1.918 2.94 2.893 4.315h.032ZM42.92 91.457c-4.715-3.308-9.701-4.155-14.112-4.906-1.599-.272-3.117-.528-4.54-.895l-.111-.032C10.412 82.57 9.022 72.23 8.878 69.962c-.032-7.88 8.007-12.514 10.117-13.601a54.95 54.95 0 0 1-1.375-2.142 38.616 38.616 0 0 1-2.589-4.81C11.307 51.39.775 58.039.903 70.153v.16c.464 8.55 6.361 19.738 21.48 23.126 1.71.432 3.436.72 5.098 1.007 3.916.671 7.608 1.294 10.884 3.596 6.505 4.475 7.767 13.201 7.847 13.776.224-.128.447-.255.671-.399l.112-.064c1.215-.735 2.413-1.582 3.676-2.477.863-.608 1.758-1.247 2.685-1.854-1.199-4.299-4.012-11.14-10.42-15.55l-.016-.017Zm22.934 13.329c-5.674.991-9.797 3.916-13.441 6.505-1.326.943-2.573 1.822-3.836 2.589l-.096.064c-11.874 7.559-20.169 1.231-21.879-.272-5.593-5.546-3.18-14.527-2.461-16.765a54.146 54.146 0 0 1-2.493-.543 39.796 39.796 0 0 1-5.242-1.567c-1.247 4.028-4.012 16.19 4.65 24.661l.128.112c3.708 3.34 9.35 5.993 16.014 5.993 4.779 0 10.069-1.375 15.535-4.843 1.518-.911 2.94-1.918 4.315-2.892 3.244-2.302 6.297-4.459 10.228-5.163 7.767-1.438 14.832 3.852 15.295 4.204.064-.256.128-.496.192-.768l.032-.111c.351-1.391.591-2.845.863-4.379.176-1.039.351-2.094.575-3.181-3.883-2.205-10.708-5.034-18.347-3.628l-.032-.016Zm45.58-10.74-.063-.112c-.736-1.214-1.583-2.413-2.478-3.675-.607-.863-1.23-1.758-1.854-2.67-4.299 1.2-11.139 4.012-15.55 10.42-3.308 4.716-4.155 9.702-4.907 14.113-.271 1.598-.527 3.116-.894 4.539l-.032.112c-3.053 13.744-13.393 15.135-15.663 15.278-7.863.048-12.53-8.022-13.6-10.116-.688.463-1.407.927-2.142 1.374a39.282 39.282 0 0 1-4.827 2.589c1.95 3.692 8.519 14.16 20.505 14.16h.384c8.55-.463 19.738-6.36 23.126-21.479.431-1.71.719-3.436 1.007-5.099.67-3.915 1.294-7.607 3.596-10.883 4.475-6.505 13.217-7.767 13.776-7.847-.128-.224-.272-.448-.416-.672l.032-.032Zm9.318-5.865c-.911-1.518-1.918-2.94-2.893-4.315-2.301-3.245-4.459-6.297-5.162-10.229-1.438-7.767 3.852-14.83 4.203-15.294-.255-.064-.495-.128-.767-.192l-.112-.032c-1.374-.352-2.813-.591-4.331-.847a155.906 155.906 0 0 1-3.228-.575c-2.206 3.883-5.035 10.707-3.628 18.347.991 5.673 3.915 9.797 6.505 13.44.942 1.327 1.822 2.574 2.589 3.836l.064.096c7.559 11.875 1.23 20.169-.272 21.88-5.546 5.593-14.528 3.18-16.765 2.461-.16.815-.336 1.646-.544 2.493a39.776 39.776 0 0 1-1.566 5.242c1.806.559 5.242 1.422 9.27 1.422 4.922 0 10.724-1.31 15.39-6.073l.112-.128c5.722-6.376 9.462-18.443 1.167-31.532h-.032Zm19.306-17.628c-.447-8.55-6.345-19.738-21.48-23.126-1.71-.432-3.436-.72-5.098-1.007-3.915-.671-7.607-1.294-10.884-3.596-6.504-4.475-7.767-13.201-7.847-13.776-.224.128-.447.255-.671.4l-.096.063c-1.23.735-2.43 1.598-3.708 2.493a95.476 95.476 0 0 1-2.653 1.838c1.199 4.3 4.012 11.14 10.42 15.55 4.715 3.309 9.702 4.156 14.113 4.907 1.598.272 3.116.528 4.539.895l.111.032c13.745 3.053 15.135 13.393 15.279 15.662.032 7.88-8.007 12.514-10.116 13.601.463.687.927 1.406 1.374 2.142a38.575 38.575 0 0 1 2.589 4.81c3.74-1.966 14.272-8.614 14.144-20.728v-.16h-.016ZM114.359 27.21c5.594 5.545 3.181 14.527 2.461 16.765.815.16 1.647.335 2.494.543 1.901.432 3.627.96 5.242 1.566 1.246-4.027 4.011-16.19-4.651-24.66l-.128-.112c-6.377-5.737-18.443-9.46-31.532-1.166-1.519.91-2.941 1.918-4.316 2.892-3.244 2.302-6.296 4.46-10.228 5.163-7.751 1.438-14.831-3.852-15.295-4.204-.064.256-.128.496-.191.768l-.033.111c-.351 1.39-.59 2.845-.863 4.38-.175 1.038-.351 2.093-.575 3.196 3.884 2.205 10.724 5.034 18.347 3.628 5.674-.991 9.797-3.916 13.441-6.505 1.327-.943 2.573-1.822 3.836-2.589l.096-.064c11.874-7.56 20.169-1.23 21.879.272l.016.016Z"/></g><defs><linearGradient id="b" x1="21.28" x2="119.697" y1="21.233" y2="119.649" gradientUnits="userSpaceOnUse"><stop stop-color="#A3AFBB"/><stop offset="1" stop-color="#3C4C51"/></linearGradient><clipPath id="a"><path fill="#fff" d="M0 0h141v141H0z"/></clipPath></defs></svg>