<?xml version="1.0" encoding="UTF-8"?>
<svg width="113px" height="11px" viewBox="0 0 113 11" version="1.1" xmlns="http://www.w3.org/2000/svg" xmlns:xlink="http://www.w3.org/1999/xlink">
    <title>Fill 148x</title>
    <g id="Page-2" stroke="none" stroke-width="1" fill="none" fill-rule="evenodd">
        <g id="Group-150" transform="translate(-119.000000, -135.000000)" fill="#231F20">
            <path d="M119.753,139.9987 L119.753,136.3367 L123.169,136.3367 C124.66,136.3367 125.499,137.0287 125.499,138.0547 L125.499,138.0817 C125.499,139.1717 124.725,139.8277 123.585,139.9697 L123.585,140.6507 C125.164,140.7437 126.019,141.3907 126.019,142.4497 L126.019,142.4757 C126.019,143.6477 125.006,144.3797 123.408,144.3797 L119.753,144.3797 L119.753,140.6377 L119.753,139.9987 Z M124.62,140.2257 C125.379,139.9187 126.205,139.2797 126.205,138.0147 L126.205,137.9877 C126.205,136.5897 124.993,135.6977 123.182,135.6977 L119.061,135.6977 L119.061,145.0197 L123.382,145.0197 C125.393,145.0197 126.725,144.0337 126.725,142.4757 L126.725,142.4497 C126.725,141.1577 125.738,140.5187 124.62,140.2257 L124.62,140.2257 Z M224.607,145.0197 L224.607,135.6977 L231.639,135.6977 L231.639,137.5217 L226.645,137.5217 L226.645,139.4127 L231.039,139.4127 L231.039,141.2377 L226.645,141.2377 L226.645,143.1947 L231.705,143.1947 L231.705,145.0197 L224.607,145.0197 Z M217.988,145.1797 C215.085,145.1797 213.088,143.1417 213.088,140.3847 L213.088,140.3577 C213.088,137.7077 215.152,135.5377 217.976,135.5377 C219.653,135.5377 220.665,135.9907 221.638,136.8157 L220.346,138.3737 C219.627,137.7747 218.987,137.4287 217.909,137.4287 C216.417,137.4287 215.232,138.7467 215.232,140.3317 L215.232,140.3577 C215.232,142.0627 216.403,143.3147 218.056,143.3147 C218.801,143.3147 219.467,143.1287 219.986,142.7557 L219.986,141.4237 L217.922,141.4237 L217.922,139.6527 L221.971,139.6527 L221.971,143.7007 C221.012,144.5137 219.693,145.1797 217.988,145.1797 L217.988,145.1797 Z M208.853,145.0197 L204.338,139.0937 L204.338,145.0197 L202.315,145.0197 L202.315,135.6977 L204.205,135.6977 L208.573,141.4367 L208.573,135.6977 L210.598,135.6977 L210.598,145.0197 L208.853,145.0197 Z M196.482,141.1177 L195.242,138.0947 L194.004,141.1177 L196.482,141.1177 Z M194.004,141.1177 L192.419,145.0197 L190.328,145.0197 L194.323,135.6307 L196.215,135.6307 L200.21,145.0197 L198.066,145.0197 L196.482,141.1177 L194.004,141.1177 Z M186.174,145.0197 L186.174,141.2767 L182.392,141.2767 L182.392,145.0197 L180.341,145.0197 L180.341,135.6977 L182.392,135.6977 L182.392,139.3867 L186.174,139.3867 L186.174,135.6977 L188.225,135.6977 L188.225,145.0197 L186.174,145.0197 Z M174.215,145.1797 C171.471,145.1797 169.434,143.0617 169.434,140.3847 L169.434,140.3577 C169.434,137.7077 171.431,135.5377 174.294,135.5377 C176.053,135.5377 177.105,136.1237 177.97,136.9757 L176.665,138.4807 C175.946,137.8277 175.213,137.4287 174.281,137.4287 C172.71,137.4287 171.577,138.7337 171.577,140.3317 L171.577,140.3577 C171.577,141.9567 172.683,143.2887 174.281,143.2887 C175.347,143.2887 175.999,142.8617 176.732,142.1957 L178.036,143.5147 C177.078,144.5407 176.013,145.1797 174.215,145.1797 L174.215,145.1797 Z M161.162,141.8237 L161.162,145.0197 L160.47,145.0197 L160.47,135.6977 L161.162,135.6977 L161.162,141.8237 L161.162,141.8237 Z M166.557,135.6977 L167.503,135.6977 L163.428,139.8117 L167.676,145.0197 L166.771,145.0197 L162.549,139.8317 L166.557,135.6977 Z M154.197,145.1797 C151.533,145.1797 149.563,143.0617 149.563,140.3847 L149.563,140.3577 C149.563,137.7217 151.533,135.5377 154.224,135.5377 C155.889,135.5377 156.887,136.1497 157.846,137.0287 L157.354,137.5347 C156.541,136.7487 155.608,136.1637 154.21,136.1637 C151.973,136.1637 150.281,137.9877 150.281,140.3317 L150.281,140.3577 C150.281,142.7157 152,144.5537 154.224,144.5537 C155.568,144.5537 156.487,144.0337 157.433,143.1017 L157.899,143.5547 C156.914,144.5267 155.849,145.1797 154.197,145.1797 L154.197,145.1797 Z M146.233,140.3577 C146.233,138.0547 144.556,136.1637 142.252,136.1637 C139.947,136.1637 138.296,138.0277 138.296,140.3317 L138.296,140.3577 C138.296,142.6627 139.974,144.5537 142.278,144.5537 C144.582,144.5537 146.233,142.6887 146.233,140.3847 L146.233,140.3577 Z M142.252,145.1797 C139.428,145.1797 137.577,142.9287 137.577,140.3847 L137.577,140.3577 C137.577,137.8147 139.455,135.5377 142.278,135.5377 C145.102,135.5377 146.952,137.7887 146.952,140.3317 C146.966,140.3447 146.966,140.3447 146.952,140.3577 C146.952,142.9017 145.075,145.1797 142.252,145.1797 L142.252,145.1797 Z M129.614,145.0197 L129.614,135.6977 L130.307,135.6977 L130.307,144.3797 L135.78,144.3797 L135.78,145.0197 L129.614,145.0197 Z" id="Fill-148"></path>
        </g>
    </g>
</svg>