<svg viewBox="0 0 36 40" fill="#ffffff" xmlns="http://www.w3.org/2000/svg">
  <path
    fill-rule="evenodd"
    clip-rule="evenodd"
    d="M4.86783 24.6797L0 21.9651V9.76914L17.5324 -0.000488281L22.3933 2.70257L22.4053 2.71082L15.0166 6.83041L27.5188 13.851V26.1719L24.8632 27.6495L22.6493 26.4043V16.559L10.1522 9.53672L4.86783 12.4804V24.6797ZM35.083 30.1889V17.9929L35.0659 17.9847L30.2135 15.2784V27.4776L24.9308 30.421L24.9189 30.4178L12.4318 23.4007V13.5504L10.2216 12.3052H10.2181L7.56226 13.7858V26.1087L20.0579 33.126L20.0664 33.129L12.6777 37.2489L17.5387 39.9552L17.5506 39.9585L35.083 30.1889ZM10.2273 35.8884L15.095 33.1738L0 24.7664V30.189L10.2273 35.8884ZM24.9029 4.10449L20.0352 6.81912L35.0705 15.2562V9.7711L24.9029 4.10449Z"
  />
</svg>
